<?xml version="1.0" encoding="UTF-8"?>
<svg width="30px" height="48px" viewBox="0 0 30 48" version="1.1" xmlns="http://www.w3.org/2000/svg" xmlns:xlink="http://www.w3.org/1999/xlink">
    <!-- Generator: Sketch 50 (54983) - http://www.bohemiancoding.com/sketch -->
    <title>noun_1068050_cc</title>
    <desc>Created with Sketch.</desc>
    <defs></defs>
    <g id="Page-1" stroke="none" stroke-width="1" fill="none" fill-rule="evenodd">
        <g id="noun_1068050_cc" fill="#000000" fill-rule="nonzero">
            <path d="M29.7,2.2 C29.6,1.7 29,1.3 28.5,1.5 L22.5,3 C22.1,3.1 21.8,3.4 21.7,3.9 L21.2,8.4 L18,8.4 C17.8,4.3 14.7,0.8 10.5,0.2 C5.7,-0.6 1.1,2.7 0.3,7.6 C-0.4,11.9 2.2,16 6.2,17.4 L5.6,19.4 C3.6,26.6 7.5,35 15.3,35.6 L15.3,46 L7.8,46 C7.2,46 6.8,46.4 6.8,47 C6.8,47.6 7.2,48 7.8,48 L24.8,48 C25.4,48 25.8,47.6 25.8,47 C25.8,46.4 25.4,46 24.8,46 L17.3,46 L17.3,35.5 C25.1,34.8 29,26.4 27,19.3 L24.2,9.1 C24.1,8.7 23.7,8.4 23.2,8.4 L23.6,4.8 L28.9,3.5 C29.5,3.3 29.8,2.7 29.7,2.2 Z M16.3,20.6 C15.6,20.9 13.5,21.5 12.3,20.7 C10.8,19.7 8.8,19.9 7.6,20.2 C7.8,19.2 7,22.4 10.3,10.3 L21,10.3 L20,20 C18.2,19.9 16.4,20.6 16.3,20.6 Z M2.3,8.8 L6.6,9.5 L3.1,12.1 C2.6,11.1 2.3,10 2.3,8.8 Z M11.2,2.3 C12.3,2.6 13.3,3.2 14.1,4 L10.5,6.6 L11.2,2.3 Z M11.7,8.3 L15.3,5.7 C15.7,6.5 16,7.4 16,8.3 C11.7,8.3 12.4,8.4 11.7,8.3 Z M9.3,2 L8.6,6.3 L6,2.8 C7,2.3 8.1,2 9.3,2 Z M4.4,4 L7,7.5 L2.7,6.8 C3,5.7 3.6,4.8 4.4,4 Z M4.3,13.7 L7.8,11.1 L7.5,12.9 L6.8,15.3 C5.8,15 5,14.4 4.3,13.7 Z M16.4,33.6 C10.4,33.6 6.9,28.1 7.2,22.4 C8,22.1 10,21.6 11.1,22.3 C13.4,23.9 16.9,22.5 17,22.4 C17.7,22.1 19.8,21.5 21,22.3 C21.8,22.9 22.8,23 23.7,23 C24.4,23 25,22.9 25.5,22.8 C25.7,28.4 22.3,33.6 16.4,33.6 Z M25.2,19.8 C25.3,20.1 25.4,20.5 25.4,20.9 C23.6,21.4 22.9,21.1 22,20.6 L22.9,11.7 L25.2,19.8 Z" id="Shape"></path>
        </g>
    </g>
</svg>